<?xml version="1.0" encoding="UTF-8" standalone="no"?>
<svg
   width="11in"
   height="8.5in"
   version="1.1"
   id="svg1020"
   sodipodi:docname="fsm_calendar.svg"
   inkscape:version="1.2-dev (9ee32be, 2021-06-19)"
   inkscape:export-filename="/Users/mradwin/Downloads/fsm_calendar.png"
   inkscape:export-xdpi="96"
   inkscape:export-ydpi="96"
   xmlns:inkscape="http://www.inkscape.org/namespaces/inkscape"
   xmlns:sodipodi="http://sodipodi.sourceforge.net/DTD/sodipodi-0.dtd"
   xmlns="http://www.w3.org/2000/svg"
   xmlns:svg="http://www.w3.org/2000/svg">
  <defs
     id="defs1024" />
  <sodipodi:namedview
     id="namedview1022"
     pagecolor="#ffffff"
     bordercolor="#666666"
     borderopacity="1.0"
     inkscape:pageshadow="2"
     inkscape:pageopacity="0.0"
     inkscape:pagecheckerboard="true"
     showgrid="false"
     inkscape:zoom="0.65219059"
     inkscape:cx="-86.631118"
     inkscape:cy="325.825"
     inkscape:window-width="1231"
     inkscape:window-height="755"
     inkscape:window-x="0"
     inkscape:window-y="23"
     inkscape:window-maximized="0"
     inkscape:current-layer="svg1020"
     units="in"
     inkscape:document-units="in" />
  <rect
     style="fill:#ffffff;stroke-width:1.22389"
     id="rect18058"
     width="297.86298"
     height="286.8248"
     x="86.313629"
     y="115.94343" />
  <path
     style="fill:#800080"
     d="m 156.18829,355.10133 c -10.58195,-11.00734 9.18413,-15.78502 16.77275,-15.04094 -1.06145,-9.47604 3.25761,-20.26729 4.53645,-27.49248 -9.93241,-7.96124 -21.74959,0.7858 -21.10126,12.47281 -2.2824,15.61726 -18.01812,12.63336 -29.22415,11.11407 -6.93242,1.25295 -22.01997,5.30213 -17.52313,-7.04949 6.58354,-12.54344 20.53756,-5.33169 31.00208,-6.33697 6.09433,-6.26859 3.61632,-18.07601 13.20383,-23.17246 4.82324,-7.9865 -11.97977,-16.3293 -18.24417,-12.45651 4.28671,10.28304 -6.47243,24.84895 -17.43188,17.47445 -6.07391,-8.82002 -23.12347,-3.6773 -23.980138,-14.47625 5.141769,-11.21023 19.869838,-4.13428 27.006918,-0.58693 -0.8636,-14.06953 13.35209,-21.4656 25.58924,-15.15786 9.86192,6.3791 18.73443,12.63806 27.83037,1.71644 9.27862,-6.84464 20.34694,-9.98769 30.87044,-14.26424 14.6954,-9.41994 -11.98093,-16.69684 -9.26976,-28.03771 -3.75753,-14.34824 14.0518,-24.27648 25.85069,-17.46339 14.77729,7.24228 9.90439,25.09718 0.45222,34.08695 -1.67157,4.84044 -0.34593,8.10973 2.5239,9.22075 4.26454,1.65099 19.94365,1.14373 23.04012,-1.4462 2.37813,-1.98911 2.32506,-6.07775 -0.81985,-10.99069 -8.21548,-8.4061 -10.45806,-22.6393 0.61445,-29.97593 10.62509,-7.71898 27.52646,-0.0248 28.03464,13.31925 5.14082,14.97049 -23.13465,17.11275 -13.84264,31.42645 15.53866,2.92601 30.20665,9.87486 42.43022,19.82044 11.83115,4.64678 21.31072,-13.55114 34.61077,-7.92964 12.04204,-1.35497 7.52756,25.05122 18.43809,12.74092 7.08768,-6.54442 27.29077,3.69506 14.99453,9.9693 -11.90809,1.21229 -23.20123,15.69501 -35.29816,7.6482 -5.13527,-5.68911 1.13792,-23.17505 -11.0606,-15.14915 -6.77431,1.22574 -10.43395,5.52284 -9.65931,9.49103 8.31499,8.06868 7.81472,8.75672 11.43862,20.04754 1.87396,5.01545 4.94818,8.13872 12.34298,3.91195 10.12215,-5.21061 31.41155,9.51232 16.58715,16.96238 -10.88017,-7.40808 -22.18434,1.21545 -33.83526,-2.27439 -11.45842,-5.45318 -4.2822,-29.7489 -21.22606,-27.10458 -6.36361,-0.74401 -8.31107,2.05697 -7.77634,5.56442 6.14417,7.53493 2.15342,14.49372 5.02487,22.65522 1.61372,3.15336 4.94159,4.64116 11.1695,2.54767 13.38099,3.13578 5.94858,20.75492 -6.12682,13.91356 -12.48022,1.05815 -23.70887,-8.11323 -19.28625,-21.078 -1.86446,-16.25442 -18.75305,-10.01671 -29.0355,-7.14105 -17.74787,3.80291 -36.23002,2.53736 -53.55384,-2.67223 -10.79692,-4.59375 -17.68675,5.15055 -14.18664,14.95546 -0.32816,15.45222 -17.89293,17.32088 -29.74253,16.6328 z m 96.22008,-38.07954 c 15.04132,-1.64077 29.42809,-8.31031 41.1872,-17.59078 12.14885,-4.83524 3.95887,-12.65684 -4.21321,-15.38599 -34.97917,-20.29144 -82.08627,-19.15426 -114.72893,5.33706 -9.71623,7.57647 10.60185,10.68157 14.92932,16.39786 18.05995,12.73064 41.55473,14.40438 62.82562,11.24185 z m -35.15732,-78.02241 c 14.40458,-7.74693 -7.32889,-26.81271 -12.84247,-10.81547 -2.44103,7.26153 5.98389,14.79838 12.84247,10.81547 z m -7.64785,-4.67445 c -6.01119,-15.39748 19.49395,0.0474 1.20456,1.02755 z m 55.80517,3.88188 c 14.61876,-9.98809 -13.47732,-26.14382 -15.33992,-7.59803 -1.21789,8.13491 9.50551,12.38518 15.33992,7.59803 z m -9.71735,-4.67482 c -3.17994,-13.16399 16.62312,0.61797 3.489,2.61875 -1.53253,-0.11178 -2.89146,-1.20665 -3.489,-2.61875 z"
     id="path1018" />
  <path
     d="m 139.50344,78.562015 a 10.637964,10.637964 0 0 1 10.63797,10.637973 V 99.837933 H 320.34883 V 89.199988 a 10.637964,10.637964 0 0 1 21.27592,0 v 10.637945 h 21.27593 a 42.551856,42.551856 0 0 1 42.55187,42.551857 v 234.03522 a 42.551856,42.551856 0 0 1 -42.55187,42.55185 H 107.58956 A 42.551856,42.551856 0 0 1 65.0377,376.42501 V 142.38979 a 42.551856,42.551856 0 0 1 42.55186,-42.551857 h 21.27591 V 89.199988 a 10.637964,10.637964 0 0 1 10.63797,-10.637973 z m -31.91388,42.551865 a 21.275926,21.275926 0 0 0 -21.275933,21.27591 v 21.27595 H 384.1766 V 142.38979 A 21.275926,21.275926 0 0 0 362.90068,121.11388 Z M 384.1766,184.94166 H 86.313627 v 191.48335 a 21.275926,21.275926 0 0 0 21.275933,21.27592 h 255.31112 a 21.275926,21.275926 0 0 0 21.27592,-21.27592 z"
     id="path1870"
     style="stroke-width:21.276;fill:#0000ff" />
  <text
     xml:space="preserve"
     style="font-style:normal;font-weight:normal;font-size:40px;line-height:1.25;font-family:sans-serif;fill:#ff2a2a;fill-opacity:1;stroke:none"
     x="175.80116"
     y="155.68936"
     id="text3188"><tspan
       sodipodi:role="line"
       id="tspan3186"
       x="175.80116"
       y="155.68936"
       style="font-weight:bold;fill:#ff2a2a">F S M</tspan></text>
</svg>
