<svg version="1.0" xmlns="http://www.w3.org/2000/svg" width="682.667" height="682.667" viewBox="0 0 512 512"><path d="M109.5 1.1c-2.2.4-5.5 1.1-7.4 1.4-5.1 1-17.9 6.6-24.5 10.9-3.3 2.1-8.6 6.3-11.8 9.3-13.6 13-20.3 25.4-25.5 46.8-.2 1.1-.6 6.4-.7 11.8-.4 14.7 2.2 26.4 8.5 39 10 20.2 26.9 35 48.1 42 9.1 3.1 11 3.5 18.9 4.3 3.5.3 6.5.7 6.6.8 0 0 1.5 6.5 3.1 14.4l3 14.3-2.3.9c-14.9 5.7-62.2 32.8-74.5 42.7-.8.7-5.4 4.1-10.2 7.7-10.8 8-17 12.9-22.5 18-2.3 2.1-5.2 4.5-6.3 5.3-5.1 3.6-7.4 13.1-4.6 19.6 1.3 3.2 9.4 11.3 17.6 17.7 2.5 1.9 4.7 3.8 5 4.1 1.1 1.3 18.4 14.1 19.6 14.6 2.1.8 1.7 2.1-1.6 5.6-8.1 8.6-12 20.9-12.3 37.9-.2 10.8-.5 12.9-2.6 17.2-1.4 2.7-4.1 6.6-6.1 8.6-3.3 3.3-4.4 3.8-9.9 4.2-11.4.8-18.1 9.4-15.9 20.3 1.6 8 8.7 12.8 18.8 12.8 12.1 0 24.1-5.9 33.5-16.5 4.7-5.4 12.9-20.8 14-26.3 1.8-9.2 2.1-13 1.8-20.4-.4-7.3-.1-8.6 2.2-12.9 2.6-4.8 6.8-8.2 10-8.2 1 0 6.2 2.5 11.8 5.5 5.5 3 10.4 5.5 11 5.5.5 0 .3 1-.5 2.2-.8 1.3-2.7 5.2-4.1 8.8-5.8 14.7-5.4 28.8 1.2 43.8 3.7 8.4 4.1 14.1 1.7 22.6-1.9 6.6-6.4 12-11.1 13.6-9.8 3.2-13.6 16.9-7.1 25.5 11.7 15.3 38.9 1.1 48.9-25.6 6.1-16.3 5.4-35.3-1.9-49.9-3.8-7.6-3.1-15.3 2.2-22.6l2.3-3.2 8.4 3.3c4.6 1.9 11.1 4.2 14.5 5.2l6.2 1.8-.6 4c-.3 2.2-.8 4.3-1.1 4.8-.2.4-.5 4.9-.5 10 0 16.7 5 29.6 15.8 40.3 3.4 3.3 6.6 7.6 7.2 9.5 3.3 10 1.4 22-4.3 27.9-4.8 5-6.4 8.6-6.1 13.9.4 8.8 5.9 14.6 15.1 15.8 5.5.6 10.1-1.5 16.1-7.5 9.5-9.7 14.6-25.3 13.9-42.7-.6-16.2-5.1-27-15.7-38-5.4-5.5-6.9-7.9-7.9-11.8-1.1-4.5-.7-15.2.5-16.4.3-.3 4.9.2 10.3 1.1 5.4.8 12.1 1.8 14.8 2.1 2.8.3 6.8.8 9 1 8.2 1 37.4 1.2 48 .3 6.1-.4 16.2-1.7 22.5-2.8 7.6-1.2 11.8-1.6 12.5-.9 1.4 1.4 1.5 13.5.2 17.5-.7 1.8-4.2 6.4-7.8 10.2-10.7 11.1-16.2 25.8-15.8 42.2.8 31.8 23.8 55.8 40 41.8 7.6-6.6 7.5-18.4-.1-25.3-4.2-3.8-6.2-9.3-6.3-17.4 0-9.7 1.6-13.6 9-20.9 8.1-8 12.6-16.9 14.9-29.2.7-4.2.7-17.5 0-21-.3-1.4-.8-3.7-1.1-5.2-.6-2.3-.2-2.7 3.2-3.8 2.1-.7 8.7-3 14.7-5.2l11-4 2.2 2.7c5.1 6.5 5.6 14.9 1.4 23.9-7.9 16.6-7.3 35.8 1.5 54.1 10.6 22.1 32.2 32.8 44.4 22.1 4.9-4.4 6.6-13.3 3.6-19.4-1.8-3.5-6.9-8.2-9-8.2-2.9 0-8.4-6.2-10.5-11.7-3.1-8.4-2.8-15.5 1-24.3 7.4-16.9 7.2-32.5-.6-48.2-2.6-5.1-2.9-6.8-1.4-6.8.5 0 5.4-2.5 10.8-5.5s10.6-5.5 11.5-5.5c2.2 0 8.6 5.8 10 8.9.6 1.4 1.1 8 1.3 14.6.3 16.7 4 28.3 13 40.6 15.1 20.7 44.7 27.3 53.2 12 2.7-4.9 3.2-9 1.7-13.5-2.5-7.3-8.9-11.6-17.1-11.6-3.8 0-5-.6-8.2-3.8-2.1-2.1-4.9-6-6.2-8.7-2.2-4.4-2.5-6.5-2.6-16.6-.3-17.2-4.2-29.4-12.5-38.9l-3.1-3.5 2.3-1.5c10.7-7 35.9-27.8 40.2-33.1 5.6-7.1 4.6-16-2.6-23.1-22.2-21.5-65.1-50.5-100.7-67.9-8-4-14.6-7.2-14.7-7.3-.4-.3 5.4-27.6 5.9-28.1.2-.2 3.5-.7 7.3-1 3.9-.4 7.3-.9 7.6-1.1.3-.2 2.1-.6 4-.9 4.5-.8 17.7-6.5 24.5-10.7 9.7-5.8 22-18.8 28.3-29.8 2.5-4.4 6.8-15.4 7.9-20.5 2-8.6 2.2-10.7 2.3-20.9 0-39.5-30.1-75-69-81.3-5.8-1-24.3-1-29.5 0-21.4 4-41.9 17.7-54.1 36.2-11.3 17.1-16 37.7-13.2 58.1 3.4 25.6 20.7 49.5 44.8 62.2 5.6 3 5.8 3.4 4.6 9.7-.3 1.6-1.1 5.8-1.8 9.3l-1.3 6.3-3-.7c-1.7-.3-5.6-1.5-8.6-2.5-13.2-4.4-38.2-9.6-56-11.6-9.6-1-45.9-1-56.9 0-4.5.5-12 1.5-16.5 2.3-4.4.8-10.1 1.7-12.6 2-2.4.3-5.3 1-6.5 1.6-1.1.6-2.1 1-2.3.9-.6-.6-11.8 2.2-23.6 6-3.3 1-6.5 1.9-7.2 1.9-1 0-5.4-17.4-5.4-21.3 0-.7 2.1-2.3 4.7-3.6 22.1-10.7 39.5-33 44.8-57.5 2.2-9.9 1.3-31.3-1.7-40.6C193 29.7 171.9 9.9 141 1.9c-5.6-1.4-26.1-2-31.5-.8z"/></svg>