<?xml version="1.0"?>
<svg xmlns="http://www.w3.org/2000/svg" xmlns:xlink="http://www.w3.org/1999/xlink">
<defs>
<symbol id="gi-calendar" viewBox="0 0 32 32">
<path d="M15,18.5v1a.5.5,0,0,1-.5.5h-1a.5.5,0,0,1-.5-.5v-1a.5.5,0,0,1,.5-.5h1A.5.5,0,0,1,15,18.5ZM14.5,22h-1a.5.5,0,0,0-.5.5v1a.5.5,0,0,0,.5.5h1a.5.5,0,0,0,.5-.5v-1A.5.5,0,0,0,14.5,22Zm0-8h-1a.5.5,0,0,0-.5.5v1a.5.5,0,0,0,.5.5h1a.5.5,0,0,0,.5-.5v-1A.5.5,0,0,0,14.5,14Zm4,8h-1a.5.5,0,0,0-.5.5v1a.5.5,0,0,0,.5.5h1a.5.5,0,0,0,.5-.5v-1A.5.5,0,0,0,18.5,22Zm-8-4h-1a.5.5,0,0,0-.5.5v1a.5.5,0,0,0,.5.5h1a.5.5,0,0,0,.5-.5v-1A.5.5,0,0,0,10.5,18Zm0,4h-1a.5.5,0,0,0-.5.5v1a.5.5,0,0,0,.5.5h1a.5.5,0,0,0,.5-.5v-1A.5.5,0,0,0,10.5,22Zm12-8h-1a.5.5,0,0,0-.5.5v1a.5.5,0,0,0,.5.5h1a.5.5,0,0,0,.5-.5v-1A.5.5,0,0,0,22.5,14Zm0,4h-1a.5.5,0,0,0-.5.5v1a.5.5,0,0,0,.5.5h1a.5.5,0,0,0,.5-.5v-1A.5.5,0,0,0,22.5,18Zm-4,0h-1a.5.5,0,0,0-.5.5v1a.5.5,0,0,0,.5.5h1a.5.5,0,0,0,.5-.5v-1A.5.5,0,0,0,18.5,18Zm0-4h-1a.5.5,0,0,0-.5.5v1a.5.5,0,0,0,.5.5h1a.5.5,0,0,0,.5-.5v-1A.5.5,0,0,0,18.5,14ZM27,7V26a2.00006,2.00006,0,0,1-2,2H7a2.00006,2.00006,0,0,1-2-2V7A2.002,2.002,0,0,1,7,5V6.5a.5.5,0,0,0,.5.5h1A.5.5,0,0,0,9,6.5v-1A.5.5,0,0,1,9.5,5h1a.5.5,0,0,1,.5.5v1a.5.5,0,0,0,.5.5h1a.5.5,0,0,0,.5-.5v-1a.5.5,0,0,1,.5-.5h1a.5.5,0,0,1,.5.5v1a.5.5,0,0,0,.5.5h1a.5.5,0,0,0,.5-.5v-1a.5.5,0,0,1,.5-.5h1a.5.5,0,0,1,.5.5v1a.5.5,0,0,0,.5.5h1a.5.5,0,0,0,.5-.5v-1a.5.5,0,0,1,.5-.5h1a.5.5,0,0,1,.5.5v1a.5.5,0,0,0,.5.5h1a.5.5,0,0,0,.5-.5V5A2.002,2.002,0,0,1,27,7ZM25.00146,26l-.00109-14H7V26Z"/>
</symbol>
<symbol id="bi-cloud-download" viewBox="0 0 16 16">
<path fill-rule="evenodd" d="M4.406 1.342A5.53 5.53 0 0 1 8 0c2.69 0 4.923 2 5.166 4.579C14.758 4.804 16 6.137 16 7.773 16 9.569 14.502 11 12.687 11H10a.5.5 0 0 1 0-1h2.688C13.979 10 15 8.988 15 7.773c0-1.216-1.02-2.228-2.313-2.228h-.5v-.5C12.188 2.825 10.328 1 8 1a4.53 4.53 0 0 0-2.941 1.1c-.757.652-1.153 1.438-1.153 2.055v.448l-.445.049C2.064 4.805 1 5.952 1 7.318 1 8.785 2.23 10 3.781 10H6a.5.5 0 0 1 0 1H3.781C1.708 11 0 9.366 0 7.318c0-1.763 1.266-3.223 2.942-3.593.143-.863.698-1.723 1.464-2.383z"/>
<path fill-rule="evenodd" d="M7.646 15.854a.5.5 0 0 0 .708 0l3-3a.5.5 0 0 0-.708-.708L8.5 14.293V5.5a.5.5 0 0 0-1 0v8.793l-2.146-2.147a.5.5 0 0 0-.708.708l3 3z"/>
</symbol>
<symbol id="bi-calendar-week" viewBox="0 0 16 16">
<path fill-rule="evenodd" d="M3.5 0a.5.5 0 0 1 .5.5V1h8V.5a.5.5 0 0 1 1 0V1h1a2 2 0 0 1 2 2v11a2 2 0 0 1-2 2H2a2 2 0 0 1-2-2V3a2 2 0 0 1 2-2h1V.5a.5.5 0 0 1 .5-.5zM1 4v10a1 1 0 0 0 1 1h12a1 1 0 0 0 1-1V4H1z"/>
<path d="M11 6.5a.5.5 0 0 1 .5-.5h1a.5.5 0 0 1 .5.5v1a.5.5 0 0 1-.5.5h-1a.5.5 0 0 1-.5-.5v-1zm-3 0a.5.5 0 0 1 .5-.5h1a.5.5 0 0 1 .5.5v1a.5.5 0 0 1-.5.5h-1a.5.5 0 0 1-.5-.5v-1zm-5 3a.5.5 0 0 1 .5-.5h1a.5.5 0 0 1 .5.5v1a.5.5 0 0 1-.5.5h-1a.5.5 0 0 1-.5-.5v-1zm3 0a.5.5 0 0 1 .5-.5h1a.5.5 0 0 1 .5.5v1a.5.5 0 0 1-.5.5h-1a.5.5 0 0 1-.5-.5v-1z"/>
</symbol>
<symbol id="icon-appleinc" viewBox="0 0 32 32">
<path d="M24.734 17.003c-0.040-4.053 3.305-5.996 3.454-6.093-1.88-2.751-4.808-3.127-5.851-3.171-2.492-0.252-4.862 1.467-6.127 1.467-1.261 0-3.213-1.43-5.28-1.392-2.716 0.040-5.221 1.579-6.619 4.012-2.822 4.897-0.723 12.151 2.028 16.123 1.344 1.944 2.947 4.127 5.051 4.049 2.026-0.081 2.793-1.311 5.242-1.311s3.138 1.311 5.283 1.271c2.18-0.041 3.562-1.981 4.897-3.931 1.543-2.255 2.179-4.439 2.216-4.551-0.048-0.022-4.252-1.632-4.294-6.473zM20.705 5.11c1.117-1.355 1.871-3.235 1.665-5.11-1.609 0.066-3.559 1.072-4.713 2.423-1.036 1.199-1.942 3.113-1.699 4.951 1.796 0.14 3.629-0.913 4.747-2.264z"></path>
</symbol>
<symbol id="icon-google" viewBox="0 0 32 32">
<path d="M16.319 13.713v5.487h9.075c-0.369 2.356-2.744 6.9-9.075 6.9-5.463 0-9.919-4.525-9.919-10.1s4.456-10.1 9.919-10.1c3.106 0 5.188 1.325 6.375 2.469l4.344-4.181c-2.788-2.612-6.4-4.188-10.719-4.188-8.844 0-16 7.156-16 16s7.156 16 16 16c9.231 0 15.363-6.494 15.363-15.631 0-1.050-0.113-1.85-0.25-2.65l-15.113-0.006z"></path>
</symbol>
<symbol id="icon-microsoftoutlook" viewBox="0 0 32 32">
<path d="M32 9.849v13.971c0 0.307-0.107 0.565-0.317 0.768-0.211 0.205-0.469 0.307-0.773 0.307h-11.396v-9.279l2.133 1.639c0.136 0.113 0.305 0.168 0.505 0.168 0.197 0 0.369-0.055 0.519-0.169zM19.513 7.155h11.396c0.281 0 0.524 0.084 0.724 0.256 0.2 0.171 0.312 0.4 0.331 0.68l-9.825 7.835-2.625-2.065zM17.872 1.152v29.695l-17.872-3.088v-23.433l17.875-3.173zM12.473 16.059c-0.027-1.511-0.417-2.763-1.172-3.752-0.74-0.987-1.7-1.508-2.841-1.552-1.099 0.044-2.039 0.564-2.8 1.552-0.76 0.989-1.14 2.243-1.16 3.752 0.020 1.489 0.42 2.729 1.18 3.721 0.761 0.987 1.699 1.511 2.801 1.568 1.14-0.047 2.099-0.565 2.86-1.56 0.76-0.997 1.16-2.24 1.18-3.729zM8.313 12.749c0.575 0.027 1.059 0.341 1.444 0.956 0.38 0.615 0.58 1.393 0.58 2.336 0 0.961-0.199 1.743-0.58 2.361-0.401 0.619-0.88 0.939-1.461 0.939s-1.060-0.301-1.46-0.92-0.58-1.4-0.58-2.339c0-0.94 0.18-1.721 0.58-2.32 0.379-0.6 0.861-0.92 1.441-0.961z"></path>
</symbol>
<symbol id="clippy" viewBox="0 0 896 1024">
<path d="M128 768h256v64H128v-64z m320-384H128v64h320v-64z m128 192V448L384 640l192 192V704h320V576H576z m-288-64H128v64h160v-64zM128 704h160v-64H128v64z m576 64h64v128c-1 18-7 33-19 45s-27 18-45 19H64c-35 0-64-29-64-64V192c0-35 29-64 64-64h192C256 57 313 0 384 0s128 57 128 128h192c35 0 64 29 64 64v320h-64V320H64v576h640V768zM128 256h512c0-35-29-64-64-64h-64c-35 0-64-29-64-64s-29-64-64-64-64 29-64 64-29 64-64 64h-64c-35 0-64 29-64 64z" />
</symbol>
<symbol id="gi-copy" viewBox="0 0 32 32">
<path d="M17,18.99976A1.993,1.993,0,0,0,16.72253,18H23.5a.5.5,0,0,1,.5.5v1a.5.5,0,0,1-.5.5H17ZM23.5,22H17v2h6.5a.5.5,0,0,0,.5-.5v-1A.5.5,0,0,0,23.5,22Zm.5-6.5v-1a.5.5,0,0,0-.5-.5h-8a.5.5,0,0,0-.5.5v1a.5.5,0,0,0,.5.5h8A.5.5,0,0,0,24,15.5ZM26,8H24V7a1,1,0,0,0-1-1H22a2,2,0,0,0-2-2H19a2,2,0,0,0-2,2H16a1,1,0,0,0-1,1V8H13a2.0026,2.0026,0,0,0-2,2v3a1.99989,1.99989,0,0,1,1.41406.58569L13,14.17163V10h2v1a1,1,0,0,0,1,1h7a1,1,0,0,0,1-1V10h2l.002,16H17v1a2.97194,2.97194,0,0,1-.18372,1H26a2.0026,2.0026,0,0,0,2-2V10A2.0026,2.0026,0,0,0,26,8ZM11,18.5a.5.5,0,0,0,.5.5H15l-4-4ZM9,20V15H5a1,1,0,0,0-1,1V27a1,1,0,0,0,1,1h9a1,1,0,0,0,1-1V21H10A1,1,0,0,1,9,20Z"/>
</symbol>
<symbol id="bi-volume-up-fill" viewBox="0 0 16 16">
<path d="M11.536 14.01A8.473 8.473 0 0 0 14.026 8a8.473 8.473 0 0 0-2.49-6.01l-.708.707A7.476 7.476 0 0 1 13.025 8c0 2.071-.84 3.946-2.197 5.303l.708.707z"/>
<path d="M10.121 12.596A6.48 6.48 0 0 0 12.025 8a6.48 6.48 0 0 0-1.904-4.596l-.707.707A5.483 5.483 0 0 1 11.025 8a5.483 5.483 0 0 1-1.61 3.89l.706.706z"/>
<path d="M8.707 11.182A4.486 4.486 0 0 0 10.025 8a4.486 4.486 0 0 0-1.318-3.182L8 5.525A3.489 3.489 0 0 1 9.025 8 3.49 3.49 0 0 1 8 10.475l.707.707z"/>
<path fill-rule="evenodd" d="M6.717 3.55A.5.5 0 0 1 7 4v8a.5.5 0 0 1-.812.39L3.825 10.5H1.5A.5.5 0 0 1 1 10V6a.5.5 0 0 1 .5-.5h2.325l2.363-1.89a.5.5 0 0 1 .529-.06z"/>
</symbol>
<symbol id="bi-info-circle-fill" viewBox="0 0 16 16">
<path fill-rule="evenodd" d="M8 16A8 8 0 1 0 8 0a8 8 0 0 0 0 16zm.93-9.412l-2.29.287-.082.38.45.083c.294.07.352.176.288.469l-.738 3.468c-.194.897.105 1.319.808 1.319.545 0 1.178-.252 1.465-.598l.088-.416c-.2.176-.492.246-.686.246-.275 0-.375-.193-.304-.533L8.93 6.588zM8 5.5a1 1 0 1 0 0-2 1 1 0 0 0 0 2z"/>
</symbol>
<symbol id="bs-check-large" viewBox="0 0 8 8">
<path fill-rule="evenodd" d="M2.3 6.73L.6 4.53c-.4-1.04.46-1.4 1.1-.8l1.1 1.4 3.4-3.8c.6-.63 1.6-.27 1.2.7l-4 4.6c-.43.5-.8.4-1.1.1z"/>
</symbol>
<symbol id="bi-check" viewBox="0 0 16 16" class="bi bi-check">
<path fill-rule="evenodd" d="M10.97 4.97a.75.75 0 0 1 1.071 1.05l-3.992 4.99a.75.75 0 0 1-1.08.02L4.324 8.384a.75.75 0 1 1 1.06-1.06l2.094 2.093 3.473-4.425a.236.236 0 0 1 .02-.022z"/>
</symbol>
</defs>
</svg>
