<svg xmlns="http://www.w3.org/2000/svg" viewBox="0 0 512 512" xml:space="preserve"><path d="M356.512 267.136c-1.131 0-2.272-.119-3.424-.353-9.032-1.88-14.826-10.723-12.946-19.75l21.087-101.305c1.88-9.038 10.706-14.788 19.75-12.946 9.032 1.88 14.826 10.723 12.946 19.75l-21.087 101.305c-1.641 7.881-8.587 13.299-16.326 13.299z" fill="#f28618"/><path d="M389.881 166.957c-46.032 0-83.478-37.446-83.478-83.478S343.849 0 389.881 0s83.478 37.446 83.478 83.478-37.444 83.479-83.478 83.479z" fill="#f9a926"/><path d="M389.881 133.565c-27.619 0-50.087-22.468-50.087-50.087s22.468-50.087 50.087-50.087 50.087 22.468 50.087 50.087-22.467 50.087-50.087 50.087z" fill="#ffd9b3"/><path d="M156.121 267.136c-7.739 0-14.684-5.418-16.326-13.299l-21.077-101.305c-1.88-9.027 3.923-17.87 12.946-19.75 9.066-1.804 17.87 3.919 19.75 12.946l21.077 101.305c1.88 9.027-3.923 17.87-12.946 19.75a17.25 17.25 0 0 1-3.424.353z" fill="#ff9f19"/><circle cx="389.878" cy="83.478" r="16.696" fill="#5a6680"/><g fill="#ff9f19"><path d="M20.197 433.544a37.42 37.42 0 0 1-5.337-.381C5.73 431.859-.618 423.402.687 414.277c1.304-9.13 9.826-15.516 18.892-14.168 2.913.441 6.206-2.566 7.5-3.864 6.098-6.098 10.065-16.549 9.021-23.799-2.239-15.657 3.282-31.87 14.782-43.364 10.761-10.778 25.228-15.789 39.522-13.723 9.13 1.304 15.478 9.761 14.173 18.886-1.304 9.125-9.848 15.446-18.892 14.168-5.305-.756-9.283 2.353-11.196 4.277-4.033 4.038-6.076 9.799-5.326 15.033 2.511 17.619-4.913 38.57-18.479 52.13-8.933 8.94-19.596 13.691-30.487 13.691zM191.773 512c-5.077 0-10.088-2.304-13.37-6.674-5.533-7.375-4.033-17.842 3.337-23.375 2.815-2.109 5.837-8.408 5.837-17.25 0-8.853-3.022-15.152-5.837-17.261-12.011-9.011-19.184-24.929-19.184-42.565 0-17.652 7.174-33.565 19.184-42.576 7.402-5.533 17.848-4.044 23.381 3.337 5.533 7.375 4.033 17.837-3.337 23.369-3.489 2.62-5.837 8.995-5.837 15.87 0 6.864 2.347 13.24 5.837 15.859 12.011 9.011 19.184 25.445 19.184 43.967 0 18.511-7.174 34.945-19.184 43.956A16.607 16.607 0 0 1 191.773 512zM97.458 483.147c-7.445 0-14.228-5.016-16.163-12.56-2.283-8.929 3.098-18.027 12.033-20.315 2.869-.733 6.131-4.615 8.316-9.881 3.782-9.13 3.141-18.581.62-22.842-8.097-13.668-8.957-31.423-2.304-47.489 6.152-14.864 17.706-25.44 31.696-29.027 8.934-2.283 18.021 3.103 20.315 12.033 2.283 8.929-3.098 18.027-12.033 20.315-3.652.935-7.066 4.473-9.13 9.456-2.532 6.12-2.456 13.229.196 17.695 8.326 14.071 8.913 34.734 1.489 52.641-6.348 15.31-17.598 26.043-30.88 29.446a16.87 16.87 0 0 1-4.155.528z"/></g><g fill="#f28618"><path d="M320.229 512c-3.489 0-7-1.087-10.011-3.342-12.011-9.011-19.184-25.445-19.184-43.956 0-18.522 7.174-34.956 19.184-43.967 3.489-2.62 5.837-8.994 5.837-15.859 0-6.875-2.347-13.25-5.837-15.87-7.369-5.533-8.87-15.994-3.337-23.369 5.543-7.381 16-8.87 23.381-3.337 12.011 9.011 19.184 24.924 19.184 42.576 0 17.636-7.174 33.554-19.184 42.565-2.815 2.109-5.837 8.408-5.837 17.261 0 8.842 3.022 15.142 5.837 17.25 7.369 5.533 8.87 16 3.337 23.375-3.282 4.369-8.293 6.673-13.37 6.673zM414.544 483.147a16.83 16.83 0 0 1-4.152-.528c-13.283-3.403-24.533-14.136-30.88-29.446-7.424-17.908-6.837-38.57 1.489-52.636 2.652-4.473 2.728-11.587.185-17.712-2.065-4.979-5.467-8.51-9.119-9.445-8.934-2.288-14.315-11.385-12.033-20.315 2.294-8.929 11.359-14.315 20.315-12.033 13.979 3.582 25.532 14.158 31.685 29.01 6.663 16.066 5.805 33.826-2.294 47.506-2.522 4.261-3.163 13.712.62 22.842 2.185 5.266 5.446 9.147 8.316 9.88 8.934 2.288 14.315 11.385 12.033 20.315-1.936 7.545-8.719 12.562-16.165 12.562zM491.805 433.544c-10.891 0-21.554-4.745-30.49-13.69-13.566-13.56-20.989-34.511-18.479-52.125.75-5.239-1.293-11-5.326-15.038-1.913-1.924-5.891-5.038-11.196-4.277-9.076 1.288-17.576-5.043-18.892-14.168-1.305-9.125 5.043-17.582 14.173-18.886 14.283-2.049 28.761 2.951 39.522 13.723 11.5 11.494 17.022 27.707 14.782 43.37-1.044 7.245 2.924 17.695 9.021 23.794 1.305 1.299 4.543 4.315 7.5 3.864 9.066-1.353 17.576 5.038 18.892 14.168 1.304 9.125-5.043 17.582-14.174 18.886a37.75 37.75 0 0 1-5.333.379z"/></g><path d="M256.316 400.696c-134.25 0-240.815-100.527-245.283-104.81-3.293-3.147-5.152-7.505-5.152-12.06s1.859-8.913 5.152-12.06c4.468-4.283 111.033-104.81 245.283-104.81s240.815 100.527 245.282 104.81a16.675 16.675 0 0 1 5.152 12.06c0 4.555-1.859 8.913-5.152 12.06-4.466 4.283-111.032 104.81-245.282 104.81z" fill="#ffc033"/><path d="M256.316 166.957c-.228 0-.445.03-.673.03v233.678c.228.001.445.03.673.03 134.25 0 240.815-100.527 245.282-104.81a16.675 16.675 0 0 0 5.152-12.06c0-4.555-1.859-8.913-5.152-12.06-4.466-4.282-111.032-104.808-245.282-104.808z" fill="#f9a926"/><path d="M122.751 166.957c-46.032 0-83.478-37.446-83.478-83.478S76.719 0 122.751 0s83.478 37.446 83.478 83.478-37.445 83.479-83.478 83.479z" fill="#ffc033"/><path d="M122.751 133.565c-27.619 0-50.087-22.468-50.087-50.087s22.468-50.087 50.087-50.087 50.087 22.468 50.087 50.087-22.467 50.087-50.087 50.087z" fill="#ffefd9"/><circle cx="122.748" cy="83.478" r="16.696" fill="#6b7a99"/></svg>