<svg width="340.415" height="340.415" xmlns="http://www.w3.org/2000/svg"><path fill="#fff" d="M21.276 37.381h297.863v286.825H21.276z"/><path d="M91.15 276.54c-10.581-11.008 9.185-15.786 16.773-15.042-1.061-9.476 3.258-20.267 4.537-27.492-9.933-7.961-21.75.786-21.101 12.473-2.283 15.617-18.019 12.633-29.225 11.114-6.932 1.253-22.02 5.302-17.523-7.05 6.584-12.543 20.538-5.331 31.002-6.337 6.095-6.268 3.617-18.076 13.204-23.172 4.823-7.987-11.98-16.33-18.244-12.457 4.287 10.283-6.472 24.85-17.432 17.475-6.074-8.82-23.123-3.678-23.98-14.476 5.142-11.21 19.87-4.135 27.007-.587-.864-14.07 13.352-21.466 25.59-15.158 9.861 6.379 18.734 12.638 27.83 1.716 9.278-6.844 20.346-9.987 30.87-14.264 14.695-9.42-11.981-16.697-9.27-28.038-3.757-14.348 14.052-24.276 25.85-17.463 14.778 7.242 9.905 25.097.453 34.087-1.671 4.84-.346 8.11 2.524 9.22 4.265 1.652 19.944 1.144 23.04-1.446 2.378-1.989 2.325-6.077-.82-10.99-8.215-8.406-10.458-22.64.615-29.976 10.625-7.72 27.526-.025 28.034 13.319 5.141 14.97-23.134 17.113-13.842 31.426 15.538 2.926 30.206 9.875 42.43 19.82 11.831 4.648 21.31-13.55 34.61-7.929 12.043-1.355 7.528 25.051 18.439 12.741 7.087-6.544 27.29 3.695 14.994 9.97-11.908 1.212-23.2 15.694-35.298 7.648-5.135-5.69 1.138-23.175-11.06-15.15-6.775 1.226-10.434 5.523-9.66 9.492 8.315 8.068 7.815 8.756 11.439 20.047 1.874 5.016 4.948 8.139 12.343 3.912 10.122-5.21 31.411 9.512 16.587 16.962-10.88-7.408-22.184 1.216-33.835-2.274-11.459-5.453-4.282-29.749-21.226-27.105-6.364-.744-8.311 2.057-7.777 5.565 6.145 7.535 2.154 14.494 5.025 22.655 1.614 3.153 4.942 4.641 11.17 2.548 13.38 3.136 5.948 20.755-6.127 13.913-12.48 1.058-23.709-8.113-19.286-21.078-1.865-16.254-18.753-10.016-29.036-7.14-17.748 3.802-36.23 2.537-53.554-2.673-10.797-4.594-17.686 5.15-14.186 14.955-.329 15.453-17.893 17.321-29.743 16.633zm96.22-38.08c15.042-1.641 29.429-8.31 41.188-17.591 12.149-4.835 3.959-12.657-4.213-15.386-34.98-20.291-82.087-19.154-114.73 5.337-9.716 7.577 10.603 10.682 14.93 16.398 18.06 12.73 41.555 14.404 62.826 11.242zm-35.157-78.023c14.405-7.747-7.329-26.812-12.842-10.815-2.441 7.261 5.984 14.798 12.842 10.815zm-7.648-4.674c-6.01-15.398 19.494.047 1.205 1.027zm55.806 3.882c14.618-9.988-13.478-26.144-15.34-7.598-1.218 8.135 9.505 12.385 15.34 7.598zm-9.718-4.675c-3.18-13.164 16.623.618 3.49 2.619-1.533-.112-2.892-1.207-3.49-2.619z" fill="purple"/><path d="M74.466 0a10.638 10.638 0 0110.638 10.638v10.638H255.31V10.638a10.638 10.638 0 0121.276 0v10.638h21.276a42.552 42.552 0 0142.552 42.552v234.035a42.552 42.552 0 01-42.552 42.552H42.552A42.552 42.552 0 010 297.863V63.828a42.552 42.552 0 0142.552-42.552h21.276V10.638A10.638 10.638 0 0174.466 0zM42.552 42.552a21.276 21.276 0 00-21.276 21.276v21.276h297.863V63.828a21.276 21.276 0 00-21.276-21.276zm276.587 63.828H21.276v191.483a21.276 21.276 0 0021.276 21.276h255.311a21.276 21.276 0 0021.276-21.276z" fill="#00f"/><text style="line-height:1.25" x="110.763" y="77.127" font-weight="400" font-size="40" font-family="sans-serif" fill="#ff2a2a"><tspan x="110.763" y="77.127" font-weight="700">F S M</tspan></text></svg>