<?xml version="1.0"?>
<svg xmlns="http://www.w3.org/2000/svg" xmlns:xlink="http://www.w3.org/1999/xlink">
<defs>
<symbol id="icon-appleinc" viewBox="0 0 32 32">
<path d="M24.734 17.003c-0.040-4.053 3.305-5.996 3.454-6.093-1.88-2.751-4.808-3.127-5.851-3.171-2.492-0.252-4.862 1.467-6.127 1.467-1.261 0-3.213-1.43-5.28-1.392-2.716 0.040-5.221 1.579-6.619 4.012-2.822 4.897-0.723 12.151 2.028 16.123 1.344 1.944 2.947 4.127 5.051 4.049 2.026-0.081 2.793-1.311 5.242-1.311s3.138 1.311 5.283 1.271c2.18-0.041 3.562-1.981 4.897-3.931 1.543-2.255 2.179-4.439 2.216-4.551-0.048-0.022-4.252-1.632-4.294-6.473zM20.705 5.11c1.117-1.355 1.871-3.235 1.665-5.11-1.609 0.066-3.559 1.072-4.713 2.423-1.036 1.199-1.942 3.113-1.699 4.951 1.796 0.14 3.629-0.913 4.747-2.264z"></path>
</symbol>
<symbol id="icon-google" viewBox="0 0 32 32">
<path d="M16.319 13.713v5.487h9.075c-0.369 2.356-2.744 6.9-9.075 6.9-5.463 0-9.919-4.525-9.919-10.1s4.456-10.1 9.919-10.1c3.106 0 5.188 1.325 6.375 2.469l4.344-4.181c-2.788-2.612-6.4-4.188-10.719-4.188-8.844 0-16 7.156-16 16s7.156 16 16 16c9.231 0 15.363-6.494 15.363-15.631 0-1.050-0.113-1.85-0.25-2.65l-15.113-0.006z"></path>
</symbol>
<symbol id="clippy" viewBox="0 0 896 1024">
<path d="M128 768h256v64H128v-64z m320-384H128v64h320v-64z m128 192V448L384 640l192 192V704h320V576H576z m-288-64H128v64h160v-64zM128 704h160v-64H128v64z m576 64h64v128c-1 18-7 33-19 45s-27 18-45 19H64c-35 0-64-29-64-64V192c0-35 29-64 64-64h192C256 57 313 0 384 0s128 57 128 128h192c35 0 64 29 64 64v320h-64V320H64v576h640V768zM128 256h512c0-35-29-64-64-64h-64c-35 0-64-29-64-64s-29-64-64-64-64 29-64 64-29 64-64 64h-64c-35 0-64 29-64 64z" />
</symbol>
<symbol id="icon-microsoftoutlook" viewBox="0 0 32 32">
<path d="M32 9.849v13.971c0 0.307-0.107 0.565-0.317 0.768-0.211 0.205-0.469 0.307-0.773 0.307h-11.396v-9.279l2.133 1.639c0.136 0.113 0.305 0.168 0.505 0.168 0.197 0 0.369-0.055 0.519-0.169zM19.513 7.155h11.396c0.281 0 0.524 0.084 0.724 0.256 0.2 0.171 0.312 0.4 0.331 0.68l-9.825 7.835-2.625-2.065zM17.872 1.152v29.695l-17.872-3.088v-23.433l17.875-3.173zM12.473 16.059c-0.027-1.511-0.417-2.763-1.172-3.752-0.74-0.987-1.7-1.508-2.841-1.552-1.099 0.044-2.039 0.564-2.8 1.552-0.76 0.989-1.14 2.243-1.16 3.752 0.020 1.489 0.42 2.729 1.18 3.721 0.761 0.987 1.699 1.511 2.801 1.568 1.14-0.047 2.099-0.565 2.86-1.56 0.76-0.997 1.16-2.24 1.18-3.729zM8.313 12.749c0.575 0.027 1.059 0.341 1.444 0.956 0.38 0.615 0.58 1.393 0.58 2.336 0 0.961-0.199 1.743-0.58 2.361-0.401 0.619-0.88 0.939-1.461 0.939s-1.060-0.301-1.46-0.92-0.58-1.4-0.58-2.339c0-0.94 0.18-1.721 0.58-2.32 0.379-0.6 0.861-0.92 1.441-0.961z"></path>
</symbol>
</defs>
</svg>
